<svg data-v-0dd9719b="" version="1.0" xmlns="http://www.w3.org/2000/svg" xmlns:xlink="http://www.w3.org/1999/xlink" width="100%" height="100%" viewBox="0 0 340.000000 250.000000" preserveAspectRatio="xMidYMid meet" color-interpolation-filters="sRGB" style="margin: auto;"> <rect data-v-0dd9719b="" x="0" y="0" width="100%" height="100%" fill="#fff" fill-opacity="1" class="background"></rect> <rect data-v-0dd9719b="" x="0" y="0" width="100%" height="100%" fill="url(#watermark)" fill-opacity="1" class="watermarklayer"></rect> <g data-v-0dd9719b="" fill="#564dbe" class="icon-text-wrapper icon-svg-group iconsvg" transform="translate(56.20500183105469,97.09250450134277)"><g class="iconsvg-imagesvg" transform="translate(0,0)"><g><rect fill="#564dbe" fill-opacity="0" stroke-width="2" x="0" y="0" width="60" height="55.81499190682617" class="image-rect"></rect> <svg x="0" y="0" width="60" height="55.81499190682617" filtersec="colorsb6180308928" class="image-svg-svg primary" style="overflow: visible;"><svg xmlns="http://www.w3.org/2000/svg" viewBox="-0.0028076171875 -0.000354766845703125 185.64190673828125 172.6932373046875"><title>资源 87</title><g><g><path d="M108.57 172.42c-4.23 0-8.48.06-12.73 0-19.35-.32-38.76 1.19-58-.69-22.39-2.2-39.25-23.21-37.75-45.8 1.54-23.1 20.21-41.1 42.73-41.2 25.74-.12 44.4 18.25 45 44A53.64 53.64 0 0 0 106.29 169c.89.76 2.41 1.14 2.28 3.42z" fill="#564dbe"></path><path d="M21.61 79.37c5.15-9 9.57-16.72 14-24.45C42 43.87 48.26 32.73 54.9 21.83 64.76 5.66 79.53-1.86 98.17.39c18.18 2.2 30.48 12.85 36.39 30.28 5.46 16.12.3 35.31-12.75 46.15-14.23 11.8-30.19 14.46-47.31 6.87-6.68-3-13-6.58-20.32-8-10.8-2.23-21.13-.58-32.57 3.68z" fill="#fecc69"></path><path d="M147 50c11.73 20.6 24.09 40.35 34.48 61.09 10.21 20.4.81 45.3-19.33 56-19.88 10.56-45.11 4.14-57.24-14.57-12.39-19.13-8.11-45 9.74-58.71C137.5 76.25 137.5 76.25 147 50z" fill="#fb4969"></path></g></g></svg></svg> <!----></g></g> <g transform="translate(67,18.347495079040527)"><g data-gra="path-name" fill-rule="" class="tp-name iconsvg-namesvg"><g transform="scale(1)"><g><path d="M10.55-0.03L10.55-0.03Q8.89-0.19 7.39-0.89 5.89-1.58 4.72-2.78L4.72-2.78Q3.35-4.14 2.63-5.88 1.91-7.61 1.91-9.54L1.91-9.54Q1.91-11.45 2.63-13.18 3.35-14.91 4.72-16.28L4.72-16.28Q6.08-17.64 7.81-18.36 9.54-19.09 11.45-19.09L11.45-19.09Q13.39-19.09 15.12-18.36 16.85-17.64 18.21-16.28L18.21-16.28Q18.24-16.28 18.21-16.25L18.21-16.25 15.51-13.55Q15.51-13.55 15.49-13.55L15.49-13.55Q14.67-14.37 13.65-14.8 12.62-15.24 11.45-15.24L11.45-15.24Q10.31-15.24 9.27-14.8 8.23-14.37 7.44-13.55L7.44-13.55Q6.6-12.73 6.18-11.68 5.75-10.63 5.75-9.54 5.75-8.45 6.18-7.39 6.6-6.33 7.44-5.51L7.44-5.51Q8.12-4.8 8.98-4.39 9.84-3.98 10.76-3.87 11.67-3.76 12.6-3.95 13.52-4.14 14.37-4.63L14.37-4.63 14.37-9.54Q14.37-9.54 14.4-9.54L14.4-9.54 18.21-9.54Q18.21-9.54 18.21-9.54L18.21-9.54 18.21-2.78 18.21-2.78Q17.53-2.1 16.74-1.55L16.74-1.55Q15.57-0.79 14.22-0.38 12.87 0.03 11.45 0.03L11.45 0.03Q11.01 0.03 10.55-0.03ZM22.08-15.27L27.1-15.27Q27.84-15.27 28.5-14.98 29.17-14.7 29.68-14.2 30.18-13.71 30.47-13.05 30.75-12.38 30.75-11.61L30.75-11.61Q30.75-10.71 30.35-9.94 29.94-9.16 29.2-8.64L29.2-8.64Q28.25-7.96 27.1-7.96L27.1-7.96 22.08-7.96Q22.06-7.96 22.06-7.99L22.06-7.99 22.06-15.24Q22.06-15.27 22.08-15.27L22.08-15.27ZM27.48-4.2L30.07 0 30.07 0 30.05 0.03 22.08 0.03Q22.06 0.03 22.06 0L22.06 0 22.06-4.17Q22.06-4.2 22.08-4.2L22.08-4.2 27.1-4.2Q27.29-4.2 27.46-4.2L27.46-4.2 27.48-4.2ZM50.82-15.24L38.36-15.24 38.36-11.45 47-11.45Q47.03-11.45 47.03-11.45L47.03-11.45 47.03-7.63Q47.03-7.61 47-7.61L47-7.61 38.36-7.61 38.36-3.84 50.82-3.84Q50.82-3.84 50.82-3.82L50.82-3.82 50.82 0Q50.82 0.03 50.82 0.03L50.82 0.03 34.54 0.03 34.54 0.03 34.54 0.03 34.52 0 34.52 0 31.16-5.4Q31.16-5.43 31.19-5.43L31.19-5.43Q32.77-6.46 33.64-8.1 34.52-9.73 34.52-11.61L34.52-11.61Q34.52-13.17 33.93-14.52 33.34-15.87 32.34-16.88 31.33-17.89 29.98-18.47 28.63-19.06 27.1-19.06L27.1-19.06Q27.07-19.06 27.07-19.06L27.07-19.06Q27.07-19.09 27.1-19.09L27.1-19.09 34.54-19.09 34.54-19.09 50.82-19.09Q50.82-19.09 50.82-19.06L50.82-19.06 50.82-15.24Q50.82-15.24 50.82-15.24L50.82-15.24ZM58.7 0.03L54.69 0.03 54.67 0 54.67 0 60.8-19.06 60.83-19.09 64.83-19.09 64.83-19.06 70.97 0 70.97 0 70.97 0.03 66.96 0.03 66.93 0 66.09-2.59 59.55-2.59 58.7 0 58.7 0.03ZM60.77-6.43L64.86-6.43 62.82-12.79 60.77-6.43ZM75.88-15.24L69.66-15.24Q69.63-15.24 69.63-15.24L69.63-15.24 69.63-19.06Q69.63-19.09 69.66-19.09L69.66-19.09 85.94-19.09Q85.94-19.09 85.94-19.06L85.94-19.06 85.94-15.24Q85.94-15.24 85.94-15.24L85.94-15.24 79.72-15.24 79.72 0Q79.72 0.03 79.69 0.03L79.69 0.03 75.88 0.03Q75.88 0.03 75.88 0L75.88 0 75.88-15.24ZM105.24-3.84L110.07-3.84Q110.86-3.84 111.4-4.39 111.95-4.93 111.95-5.73L111.95-5.73Q111.95-6.52 111.4-7.06 110.86-7.61 110.07-7.61L110.07-7.61 105.24-7.61Q104.04-7.61 102.99-8.06 101.94-8.51 101.16-9.28 100.39-10.06 99.94-11.11 99.49-12.16 99.49-13.36L99.49-13.36Q99.49-14.53 99.94-15.58 100.39-16.63 101.16-17.41 101.94-18.19 102.99-18.64 104.04-19.09 105.24-19.09L105.24-19.09 110.07-19.09Q111.27-19.09 112.3-18.64 113.34-18.19 114.12-17.41 114.89-16.63 115.36-15.58 115.82-14.53 115.82-13.36L115.82-13.36Q115.82-13.33 115.79-13.33L115.79-13.33 111.98-13.33Q111.95-13.33 111.95-13.36L111.95-13.36Q111.95-14.12 111.4-14.68 110.86-15.24 110.07-15.24L110.07-15.24 105.24-15.24Q104.45-15.24 103.89-14.68 103.33-14.12 103.33-13.36L103.33-13.36Q103.33-12.57 103.89-12.01 104.45-11.45 105.24-11.45L105.24-11.45 110.07-11.45Q111.27-11.45 112.3-11 113.34-10.55 114.12-9.77 114.89-9 115.36-7.95 115.82-6.9 115.82-5.73L115.82-5.73Q115.82-4.53 115.36-3.49 114.89-2.45 114.12-1.66 113.34-0.87 112.3-0.42 111.27 0.03 110.07 0.03L110.07 0.03 105.24 0.03Q104.04 0.03 102.99-0.42 101.94-0.87 101.16-1.66 100.39-2.45 99.94-3.49 99.49-4.53 99.49-5.73L99.49-5.73Q99.49-5.73 99.52-5.73L99.52-5.73 103.33-5.73Q103.33-5.73 103.33-5.73L103.33-5.73Q103.33-4.93 103.89-4.39 104.45-3.84 105.24-3.84L105.24-3.84ZM125.2-15.24L118.98-15.24Q118.95-15.24 118.95-15.24L118.95-15.24 118.95-19.06Q118.95-19.09 118.98-19.09L118.98-19.09 135.26-19.09Q135.26-19.09 135.26-19.06L135.26-19.06 135.26-15.24Q135.26-15.24 135.26-15.24L135.26-15.24 129.04-15.24 129.04 0Q129.04 0.03 129.02 0.03L129.02 0.03 125.2 0.03Q125.2 0.03 125.2 0L125.2 0 125.2-15.24ZM140.14-6.41L136.02-6.41 136-6.41 136-6.43 138.07-12.84Q138.07-12.92 138.09-12.84L138.09-12.84 140.17-6.43 140.17-6.41 140.14-6.41ZM134.8-2.62L141.37-2.62 141.39-2.62 142.24 0 142.24 0 142.21 0.03 133.95 0.03 133.92 0 133.92 0 134.77-2.62 134.8-2.62ZM159.17-5.4L162.5 0 162.5 0 162.5 0.03 158 0.03 158 0 155.41-4.17Q155.22-4.14 155.05-4.14L155.05-4.14 150.04-4.14 150.04 0Q150.04 0.03 150.04 0.03L150.04 0.03 146.22 0.03 146.19 0 146.19 0 140.06-19.06 140.06-19.09 140.08-19.09 155.05-19.09Q156.58-19.09 157.94-18.5 159.31-17.91 160.32-16.9 161.32-15.9 161.91-14.53 162.5-13.17 162.5-11.61L162.5-11.61Q162.5-9.73 161.62-8.1 160.75-6.46 159.17-5.4L159.17-5.4ZM157.13-8.67L157.13-8.67Q157.86-9.19 158.26-9.97 158.65-10.74 158.65-11.61L158.65-11.61Q158.65-12.38 158.37-13.03 158.08-13.69 157.59-14.18 157.1-14.67 156.44-14.95 155.79-15.24 155.05-15.24L155.05-15.24 150.04-15.24 150.04-8.02 155.05-8.02Q156.2-8.02 157.13-8.67Z" transform="translate(-1.9100000858306885, 19.09000015258789)"></path></g> <!----> <!----> <!----> <!----> <!----> <!----> <!----></g></g> <!----></g></g><defs v-gra="od"></defs></svg>